# xmcd
#
# Track frame offsets:
#       150
#       11382
#       26472
#       39754
#       51098
#       67538
#       83298
#       98169
#       113488
#       130790
#
# Disc length: 1955 seconds
#
# Revision: 1
# Processed by: cddbd v1.5.1PL2 Copyright (c) Steve Scherf et al.
# Submitted via: MusiCat 1.1
#
DISCID=5b07a10a
DTITLE=Mark Chesnutt - Mark Chesnutt
DYEAR=1900
DGENRE=
TTITLE0=Welcome Fool
TTITLE1=Full Blooded Texan
TTITLE2=Heartache County
TTITLE3=Heaven On My Mind
TTITLE4=Let's Make a Memory One More Time
TTITLE5=Rodeo Cowboys
TTITLE6=Running Out of Ways To Say I Love You
TTITLE7=Since I Drank My Way to Houston
TTITLE8=The Price of Getting High
TTITLE9=Country Girl
EXTD=\n\n
EXTT0=
EXTT1=
EXTT2=
EXTT3=
EXTT4=
EXTT5=
EXTT6=
EXTT7=
EXTT8=
EXTT9=
PLAYORDER=
